<svg width="96" height="96" viewBox="0 0 96 96" fill="none" xmlns="http://www.w3.org/2000/svg">
  <defs>
    <linearGradient id="gradient1" x1="0%" y1="0%" x2="100%" y2="100%">
      <stop offset="0%" style="stop-color:#FFFFFF;stop-opacity:0.9" />
      <stop offset="100%" style="stop-color:#A0A0A0;stop-opacity:0.7" />
    </linearGradient>
  </defs>
  
  <!-- Ana container - modern hexagon -->
  <g transform="translate(48, 48)">
    <!-- Outer glow effect -->
    <polygon points="-24,-14 -24,14 0,28 24,14 24,-14 0,-28" 
             fill="url(#gradient1)" 
             opacity="0.1"/>
    
    <!-- Main hexagon -->
    <polygon points="-20,-12 -20,12 0,24 20,12 20,-12 0,-24" 
             stroke="#FFFFFF" 
             stroke-width="2" 
             fill="none"/>
    
    <!-- Inner connection lines creating a neural network pattern -->
    <g stroke="#E0E0E0" stroke-width="1.5" opacity="0.8">
      <!-- Center to corners -->
      <line x1="0" y1="0" x2="0" y2="-16"/>
      <line x1="0" y1="0" x2="14" y2="8"/>
      <line x1="0" y1="0" x2="14" y2="-8"/>
      <line x1="0" y1="0" x2="-14" y2="8"/>
      <line x1="0" y1="0" x2="-14" y2="-8"/>
      <line x1="0" y1="0" x2="0" y2="16"/>
    </g>
    
    <!-- Connection nodes -->
    <g fill="#FFFFFF">
      <circle cx="0" cy="-16" r="3"/>
      <circle cx="14" cy="8" r="2.5"/>
      <circle cx="14" cy="-8" r="2.5"/>
      <circle cx="-14" cy="8" r="2.5"/>
      <circle cx="-14" cy="-8" r="2.5"/>
      <circle cx="0" cy="16" r="3"/>
    </g>
    
    <!-- Center hub -->
    <circle cx="0" cy="0" r="5" fill="#FFFFFF" opacity="0.9"/>
    <circle cx="0" cy="0" r="2" fill="#C0C0C0"/>
    
    <!-- Dynamic accent lines -->
    <g stroke="#B0B0B0" stroke-width="1" opacity="0.6">
      <path d="M-8,-8 Q0,-12 8,-8" fill="none"/>
      <path d="M-8,8 Q0,12 8,8" fill="none"/>
    </g>
  </g>
  
  <!-- Corner accents for modern tech feel -->
  <g opacity="0.4">
    <rect x="8" y="8" width="12" height="2" fill="#FFFFFF"/>
    <rect x="8" y="8" width="2" height="12" fill="#FFFFFF"/>
    
    <rect x="76" y="86" width="12" height="2" fill="#FFFFFF"/>
    <rect x="86" y="76" width="2" height="12" fill="#FFFFFF"/>
  </g>
</svg>